<svg width="32" height="41" viewBox="0 0 32 41" fill="none" xmlns="http://www.w3.org/2000/svg">
<path d="M31.2174 10.476L21.7677 0.868861C21.5043 0.601005 21.1486 0.449219 20.7753 0.449219H2.12194C1.34471 0.449219 0.716782 1.08761 0.716782 1.87779V39.0206C0.716782 39.8108 1.34471 40.4492 2.12194 40.4492H30.225C31.0022 40.4492 31.6302 39.8108 31.6302 39.0206V11.4894C31.6302 11.11 31.4808 10.7439 31.2174 10.476ZM28.3895 12.1456H20.1254V3.74386L28.3895 12.1456ZM28.4685 37.235H3.87836V3.66351H17.1395V13.3064C17.1395 13.8036 17.3338 14.2806 17.6797 14.6322C18.0256 14.9838 18.4946 15.1814 18.9837 15.1814H28.4685V37.235Z" fill="black" fill-opacity="0.75"/>
</svg>
