<svg width="38" height="48" viewBox="0 0 38 48" fill="none" xmlns="http://www.w3.org/2000/svg">
<path d="M37.3552 12.0321L25.8266 0.503572C25.5052 0.182143 25.0713 0 24.6159 0H1.85876C0.910542 0 0.14447 0.766071 0.14447 1.71429V46.2857C0.14447 47.2339 0.910542 48 1.85876 48H36.1445C37.0927 48 37.8588 47.2339 37.8588 46.2857V13.2482C37.8588 12.7929 37.6766 12.3536 37.3552 12.0321ZM33.9052 14.0357H23.823V3.95357L33.9052 14.0357ZM34.0016 44.1429H4.00161V3.85714H20.1802V15.4286C20.1802 16.0253 20.4172 16.5976 20.8392 17.0196C21.2612 17.4415 21.8334 17.6786 22.4302 17.6786H34.0016V44.1429Z" fill="black" fill-opacity="0.75"/>
</svg>
